<?xml version="1.0" standalone="no"?>
<!DOCTYPE svg PUBLIC "-//W3C//DTD SVG 20010904//EN"
 "http://www.w3.org/TR/2001/REC-SVG-20010904/DTD/svg10.dtd">
<svg version="1.0" xmlns="http://www.w3.org/2000/svg"
 width="512.000000pt" height="512.000000pt" viewBox="0 0 512.000000 512.000000"
 preserveAspectRatio="xMidYMid meet">
<metadata>
Created by potrace 1.14, written by Peter Selinger 2001-2017
</metadata>
<g transform="translate(0.000000,512.000000) scale(0.100000,-0.100000)"
fill="#000000" stroke="none">
<path d="M0 2560 l0 -2560 2560 0 2560 0 0 2560 0 2560 -2560 0 -2560 0 0
-2560z m1466 570 c265 -1138 260 -1118 267 -1100 3 8 119 458 257 1000 138
542 253 993 256 1003 5 16 29 17 314 17 l309 0 10 -37 c6 -21 26 -103 45 -183
67 -276 455 -1833 459 -1836 2 -2 56 220 121 494 228 959 254 1069 313 1314
l58 248 323 0 c177 0 322 -3 322 -7 0 -8 -50 -195 -187 -703 -84 -311 -154
-574 -298 -1110 -130 -483 -305 -1134 -311 -1152 -5 -17 -30 -18 -333 -18
l-328 0 -253 1018 c-181 726 -255 1011 -261 997 -5 -11 -67 -261 -139 -555
-127 -518 -274 -1119 -329 -1345 l-27 -110 -336 -3 -335 -2 -42 157 c-23 87
-63 241 -90 343 -27 102 -101 381 -165 620 -340 1283 -420 1587 -453 1709 -19
74 -37 141 -40 148 -4 11 53 13 328 11 l333 -3 212 -915z"/>
</g>
</svg>
